<?xml version="1.0" encoding="iso-8859-1"?>
<svg xmlns="http://www.w3.org/2000/svg" viewBox="0 0 668.295 118.432" width="668.295" heiht="118.432">
	<g fill="#ffffff">
		<path d="M16.992,10.944l10.512,35.064l10.44-35.064h16.992L37.8,61.92H17.136L0,10.944H16.992z"/>
		<path d="M88.847,23.328c3.264,1.681,5.819,4.093,7.668,7.236c1.847,3.145,2.772,6.829,2.772,11.052 c0,4.225-0.925,7.909-2.772,11.052c-1.849,3.145-4.404,5.556-7.668,7.236c-3.265,1.681-6.937,2.52-11.016,2.52 c-4.081,0-7.752-0.839-11.016-2.52c-3.265-1.68-5.821-4.091-7.668-7.236c-1.848-3.143-2.772-6.828-2.772-11.052 c0-4.223,0.924-7.907,2.772-11.052c1.847-3.143,4.403-5.555,7.668-7.236c3.264-1.68,6.936-2.52,11.016-2.52 C81.91,20.808,85.583,21.648,88.847,23.328z M74.087,36.396c-1.008,1.177-1.512,2.916-1.512,5.22c0,2.304,0.492,4.044,1.476,5.22 c0.983,1.177,2.243,1.764,3.78,1.764c1.487,0,2.736-0.587,3.744-1.764c1.008-1.176,1.512-2.916,1.512-5.22 c0-2.304-0.504-4.043-1.512-5.22c-1.008-1.176-2.257-1.764-3.744-1.764C76.343,34.632,75.095,35.22,74.087,36.396z"/>
		<path d="M98.278,67.752h3.096c1.055,0,1.812-0.216,2.268-0.648c0.456-0.432,0.684-1.128,0.684-2.088V21.312h15.984 v43.416c0,11.088-5.569,16.632-16.704,16.632h-5.328V67.752z M105.55,15.84c-1.681-1.487-2.52-3.359-2.52-5.616 c0-2.304,0.839-4.212,2.52-5.724c1.679-1.512,3.912-2.268,6.696-2.268c2.736,0,4.943,0.756,6.624,2.268 c1.68,1.512,2.52,3.42,2.52,5.724c0,2.256-0.84,4.128-2.52,5.616c-1.681,1.488-3.888,2.232-6.624,2.232 C109.462,18.072,107.229,17.328,105.55,15.84z"/>
		<path d="M152.637,48.312V61.92h-6.048c-11.137,0-16.704-5.544-16.704-16.632V34.632h-5.04v-13.32h5.04V11.52h15.984 v9.792h6.624v13.32h-6.624v10.944c0,0.961,0.227,1.656,0.684,2.088c0.456,0.432,1.211,0.648,2.268,0.648H152.637z"/>
		<path d="M197.708,44.424h-25.56c0.144,2.016,0.6,3.396,1.368,4.14c0.768,0.745,1.775,1.116,3.024,1.116 c1.728,0,2.976-0.792,3.744-2.376h16.92c-0.576,2.88-1.789,5.461-3.636,7.74c-1.849,2.28-4.176,4.081-6.984,5.4 c-2.808,1.321-5.893,1.98-9.252,1.98c-4.032,0-7.621-0.839-10.764-2.52c-3.145-1.68-5.592-4.091-7.344-7.236 c-1.752-3.143-2.628-6.828-2.628-11.052c0-4.223,0.875-7.907,2.628-11.052c1.752-3.143,4.2-5.555,7.344-7.236 c3.143-1.68,6.732-2.52,10.764-2.52c4.032,0,7.62,0.828,10.764,2.484c3.143,1.656,5.591,4.021,7.344,7.092 c1.751,3.072,2.628,6.696,2.628,10.872C198.069,42.264,197.948,43.32,197.708,44.424z M189.285,13.176l-11.88,6.12l-11.952-6.12 V2.808l11.952,6.336l11.88-6.336V13.176z M181.869,37.872c0-1.536-0.432-2.675-1.296-3.42c-0.864-0.744-1.944-1.116-3.24-1.116 c-2.928,0-4.608,1.512-5.04,4.536H181.869z"/>
		<path d="M235.041,25.272c3.624,2.977,5.915,7.104,6.876,12.384h-16.92c-0.624-2.111-1.848-3.168-3.672-3.168 c-1.296,0-2.316,0.601-3.06,1.8c-0.745,1.2-1.116,2.977-1.116,5.328c0,2.353,0.371,4.129,1.116,5.328 c0.744,1.201,1.764,1.8,3.06,1.8c1.824,0,3.048-1.056,3.672-3.168h16.92c-0.961,5.281-3.252,9.409-6.876,12.384 c-3.625,2.977-8.077,4.464-13.356,4.464c-4.032,0-7.621-0.839-10.764-2.52c-3.145-1.68-5.592-4.091-7.344-7.236 c-1.752-3.143-2.628-6.828-2.628-11.052c0-4.223,0.875-7.907,2.628-11.052c1.752-3.143,4.2-5.555,7.344-7.236 c3.143-1.68,6.732-2.52,10.764-2.52C226.964,20.808,231.416,22.296,235.041,25.272z"/>
		<path d="M286.304,25.704c2.615,3.121,3.924,7.344,3.924,12.672V61.92h-15.912V40.392 c0-1.919-0.516-3.444-1.548-4.572c-1.033-1.127-2.412-1.692-4.14-1.692c-1.776,0-3.168,0.565-4.176,1.692 c-1.008,1.128-1.512,2.653-1.512,4.572V61.92h-15.984V8.64h15.984v18.864c1.248-1.919,2.916-3.479,5.004-4.68 c2.088-1.199,4.572-1.8,7.452-1.8C280.051,21.024,283.687,22.584,286.304,25.704z"/>
		<path d="M340.555,35.712l18.863,26.208h-19.224l-14.832-22.104V61.92h-15.984V10.944h15.984v21.528l14.976-21.528 h19.08L340.555,35.712z"/>
		<path d="M406.722,21.312V61.92h-15.984v-6.192c-1.248,1.92-2.916,3.48-5.004,4.68c-2.088,1.201-4.571,1.8-7.452,1.8 c-4.656,0-8.292-1.56-10.907-4.68c-2.617-3.12-3.925-7.344-3.925-12.672V21.312h15.912V42.84c0,1.92,0.516,3.445,1.549,4.572 c1.031,1.128,2.411,1.692,4.14,1.692c1.775,0,3.168-0.563,4.176-1.692c1.008-1.127,1.512-2.652,1.512-4.572V21.312H406.722z"/>
		<path d="M435.341,22.428c1.896,1.08,3.349,2.556,4.356,4.428V8.64h15.984v53.28h-15.984v-5.544 c-1.008,1.872-2.46,3.348-4.356,4.428c-1.896,1.08-4.164,1.62-6.804,1.62c-3.168,0-6.024-0.828-8.567-2.484 c-2.545-1.656-4.549-4.056-6.013-7.2c-1.465-3.143-2.195-6.851-2.195-11.124c0-4.271,0.73-7.979,2.195-11.124 c1.464-3.143,3.468-5.544,6.013-7.2c2.543-1.656,5.399-2.484,8.567-2.484C431.177,20.808,433.445,21.348,435.341,22.428z  M429.618,36.576c-1.104,1.201-1.656,2.88-1.656,5.04c0,2.16,0.552,3.841,1.656,5.04c1.104,1.201,2.521,1.8,4.248,1.8 c1.729,0,3.144-0.6,4.248-1.8c1.104-1.199,1.656-2.88,1.656-5.04c0-2.16-0.553-3.839-1.656-5.04c-1.104-1.199-2.52-1.8-4.248-1.8 C432.138,34.776,430.721,35.376,429.618,36.576z"/>
		<path d="M478.866,8.64v53.28h-15.984V8.64H478.866z"/>
		<path d="M507.52,22.428c1.92,1.08,3.385,2.556,4.393,4.428v-5.544h15.912V61.92h-15.912v-5.544 c-1.008,1.872-2.473,3.348-4.393,4.428c-1.92,1.08-4.2,1.62-6.84,1.62c-3.168,0-6.024-0.828-8.567-2.484 c-2.545-1.656-4.549-4.056-6.013-7.2c-1.465-3.143-2.195-6.851-2.195-11.124c0-4.271,0.73-7.979,2.195-11.124 c1.464-3.143,3.468-5.544,6.013-7.2c2.543-1.656,5.399-2.484,8.567-2.484C503.32,20.808,505.6,21.348,507.52,22.428z  M515.224,11.808l-18.647,6.768V7.92L515.224,0V11.808z M501.76,36.576c-1.104,1.201-1.656,2.88-1.656,5.04 c0,2.16,0.552,3.841,1.656,5.04c1.104,1.201,2.521,1.8,4.248,1.8c1.729,0,3.144-0.6,4.248-1.8c1.104-1.199,1.656-2.88,1.656-5.04 c0-2.16-0.553-3.839-1.656-5.04c-1.104-1.199-2.52-1.8-4.248-1.8C504.281,34.776,502.864,35.376,501.76,36.576z"/>
		<path d="M566.957,25.272c3.623,2.977,5.915,7.104,6.876,12.384h-16.92c-0.625-2.111-1.849-3.168-3.672-3.168 c-1.297,0-2.316,0.601-3.061,1.8c-0.744,1.2-1.116,2.977-1.116,5.328c0,2.353,0.372,4.129,1.116,5.328 c0.744,1.201,1.764,1.8,3.061,1.8c1.823,0,3.047-1.056,3.672-3.168h16.92c-0.961,5.281-3.253,9.409-6.876,12.384 c-3.625,2.977-8.076,4.464-13.356,4.464c-4.032,0-7.62-0.839-10.764-2.52c-3.145-1.68-5.593-4.091-7.344-7.236 c-1.753-3.143-2.628-6.828-2.628-11.052c0-4.223,0.875-7.907,2.628-11.052c1.751-3.143,4.199-5.555,7.344-7.236 c3.144-1.68,6.731-2.52,10.764-2.52C558.88,20.808,563.332,22.296,566.957,25.272z M565.264,13.176l-11.88,6.12l-11.952-6.12V2.808 l11.952,6.336l11.88-6.336V13.176z"/>
		<path d="M617.824,44.424h-25.56c0.144,2.016,0.6,3.396,1.368,4.14c0.767,0.745,1.774,1.116,3.023,1.116 c1.729,0,2.976-0.792,3.744-2.376h16.92c-0.576,2.88-1.789,5.461-3.636,7.74c-1.849,2.28-4.176,4.081-6.984,5.4 c-2.808,1.321-5.893,1.98-9.252,1.98c-4.032,0-7.62-0.839-10.764-2.52c-3.145-1.68-5.593-4.091-7.344-7.236 c-1.753-3.143-2.628-6.828-2.628-11.052c0-4.223,0.875-7.907,2.628-11.052c1.751-3.143,4.199-5.555,7.344-7.236 c3.144-1.68,6.731-2.52,10.764-2.52s7.62,0.828,10.765,2.484c3.143,1.656,5.591,4.021,7.344,7.092 c1.751,3.072,2.628,6.696,2.628,10.872C618.184,42.264,618.064,43.32,617.824,44.424z M601.984,37.872 c0-1.536-0.432-2.675-1.296-3.42c-0.864-0.744-1.944-1.116-3.24-1.116c-2.928,0-4.607,1.512-5.04,4.536H601.984z"/>
		<path d="M649.215,61.92l-10.008-16.2v16.2h-15.984V8.64h15.984v27.864l10.152-15.192h18.575L652.744,41.76 l15.552,20.16H649.215z"/>
	</g>
	<g stroke="#ffffff" stroke-width="1" fill="none" stroke-miterlimit="10">
		<path d="M152.637,71.488v21.936 c0,4.064-1.064,7.145-3.192,9.24c-2.128,2.096-5.112,3.144-8.952,3.144c-4.128,0-7.408-1.135-9.84-3.408 c-2.432-2.272-3.648-5.584-3.648-9.936h10.512c0,1.376,0.223,2.344,0.672,2.904c0.448,0.56,1.056,0.84,1.824,0.84 c0.64,0,1.136-0.208,1.488-0.624c0.352-0.416,0.528-1.135,0.528-2.16V71.488H152.637z"/>
		<path d="M171.549,79.144 c1.279,0.72,2.256,1.704,2.928,2.952V78.4h10.608v27.072h-10.608v-3.696c-0.672,1.248-1.648,2.232-2.928,2.952 c-1.28,0.72-2.801,1.08-4.56,1.08c-2.112,0-4.016-0.552-5.712-1.656c-1.697-1.104-3.032-2.704-4.008-4.8 c-0.977-2.095-1.464-4.567-1.464-7.416c0-2.848,0.487-5.32,1.464-7.416c0.976-2.095,2.312-3.696,4.008-4.8 c1.696-1.104,3.6-1.656,5.712-1.656C168.749,78.063,170.269,78.424,171.549,79.144z M167.709,88.576 c-0.736,0.8-1.104,1.92-1.104,3.36s0.368,2.561,1.104,3.36c0.736,0.8,1.68,1.2,2.832,1.2c1.152,0,2.096-0.4,2.832-1.2 c0.736-0.8,1.104-1.92,1.104-3.36s-0.368-2.56-1.104-3.36c-0.736-0.799-1.68-1.2-2.832-1.2 C169.389,87.375,168.445,87.776,167.709,88.576z"/>
		<path d="M203.613,95.344l4.32-16.944h11.328l-9.024,27.072 h-13.296L187.917,78.4h11.328L203.613,95.344z"/>
		<path d="M236.396,79.144 c1.279,0.72,2.256,1.704,2.928,2.952V78.4h10.608v27.072h-10.608v-3.696c-0.672,1.248-1.648,2.232-2.928,2.952 c-1.28,0.72-2.801,1.08-4.56,1.08c-2.112,0-4.016-0.552-5.712-1.656c-1.697-1.104-3.032-2.704-4.008-4.8 c-0.977-2.095-1.464-4.567-1.464-7.416c0-2.848,0.487-5.32,1.464-7.416c0.976-2.095,2.312-3.696,4.008-4.8 c1.696-1.104,3.6-1.656,5.712-1.656C233.596,78.063,235.116,78.424,236.396,79.144z M232.556,88.576 c-0.736,0.8-1.104,1.92-1.104,3.36s0.368,2.561,1.104,3.36c0.736,0.8,1.68,1.2,2.832,1.2c1.152,0,2.096-0.4,2.832-1.2 c0.736-0.8,1.104-1.92,1.104-3.36s-0.368-2.56-1.104-3.36c-0.736-0.799-1.68-1.2-2.832-1.2 C234.236,87.375,233.292,87.776,232.556,88.576z"/>
		<path d="M279.476,100.72 c-1.008,1.568-2.472,2.808-4.392,3.72c-1.92,0.912-4.208,1.368-6.864,1.368c-4.064,0-7.416-0.952-10.056-2.856 c-2.64-1.903-4.073-4.696-4.296-8.376h11.328c0.16,1.952,1.024,2.928,2.592,2.928c0.543,0,0.984-0.144,1.32-0.432 s0.504-0.704,0.504-1.248c0-0.799-0.408-1.432-1.224-1.896c-0.816-0.463-2.136-1-3.96-1.608c-2.145-0.704-3.929-1.424-5.352-2.16 c-1.424-0.736-2.664-1.824-3.72-3.264s-1.584-3.312-1.584-5.616c0-2.208,0.568-4.087,1.704-5.64 c1.135-1.552,2.688-2.728,4.656-3.528c1.968-0.8,4.184-1.2,6.648-1.2c4.063,0,7.296,0.944,9.696,2.832 c2.4,1.889,3.712,4.608,3.936,8.16H268.94c-0.161-1.792-0.896-2.688-2.208-2.688c-0.448,0-0.816,0.136-1.104,0.408 c-0.288,0.272-0.432,0.68-0.432,1.224c0,0.736,0.408,1.336,1.224,1.8c0.816,0.464,2.088,1,3.816,1.608 c2.176,0.768,3.976,1.528,5.4,2.28c1.423,0.752,2.671,1.856,3.744,3.312c1.072,1.457,1.608,3.32,1.608,5.592 C280.988,97.392,280.484,99.152,279.476,100.72z"/>
		<path d="M306.02,81.04 c2.416,1.985,3.943,4.736,4.584,8.256h-11.28c-0.417-1.408-1.232-2.112-2.448-2.112c-0.864,0-1.544,0.4-2.04,1.2 c-0.497,0.8-0.744,1.984-0.744,3.552c0,1.568,0.248,2.752,0.744,3.552c0.496,0.8,1.176,1.2,2.04,1.2 c1.216,0,2.032-0.703,2.448-2.112h11.28c-0.641,3.521-2.168,6.272-4.584,8.256c-2.417,1.985-5.384,2.976-8.904,2.976 c-2.688,0-5.081-0.56-7.176-1.68c-2.096-1.12-3.728-2.728-4.896-4.824c-1.168-2.096-1.752-4.552-1.752-7.368 c0-2.815,0.583-5.271,1.752-7.368c1.168-2.096,2.8-3.704,4.896-4.824c2.096-1.12,4.488-1.68,7.176-1.68 C300.636,78.063,303.604,79.056,306.02,81.04z"/>
		<path d="M328.604,79.624 c1.567-0.943,3.199-1.416,4.896-1.416v11.376h-3.024c-2.016,0-3.497,0.353-4.44,1.056c-0.944,0.704-1.416,1.952-1.416,3.744v11.088 h-10.656V78.4h10.656v4.992C325.708,81.824,327.036,80.568,328.604,79.624z"/>
		<path d="M337.292,67.192 c1.12-1.008,2.608-1.512,4.464-1.512c1.824,0,3.295,0.504,4.416,1.512c1.12,1.008,1.68,2.28,1.68,3.816 c0,1.504-0.561,2.752-1.68,3.744c-1.121,0.993-2.592,1.488-4.416,1.488c-1.856,0-3.344-0.496-4.464-1.488 c-1.121-0.991-1.68-2.239-1.68-3.744C335.611,69.472,336.171,68.2,337.292,67.192z M347.036,78.4v27.072h-10.656V78.4H347.036z"/>
		<path d="M375.643,79.72c1.695,1.104,3.031,2.705,4.008,4.8 c0.976,2.096,1.464,4.568,1.464,7.416c0,2.849-0.488,5.321-1.464,7.416c-0.977,2.096-2.313,3.696-4.008,4.8 c-1.696,1.104-3.6,1.656-5.712,1.656c-1.761,0-3.272-0.36-4.536-1.08c-1.265-0.72-2.232-1.704-2.904-2.952v16.656h-10.656V78.4 h10.656v3.696c0.672-1.248,1.639-2.232,2.904-2.952c1.264-0.72,2.775-1.08,4.536-1.08C372.043,78.063,373.947,78.616,375.643,79.72 z M363.547,88.576c-0.736,0.8-1.104,1.92-1.104,3.36s0.368,2.561,1.104,3.36c0.736,0.8,1.68,1.2,2.832,1.2s2.095-0.4,2.833-1.2 c0.735-0.8,1.104-1.92,1.104-3.36s-0.368-2.56-1.104-3.36c-0.737-0.799-1.681-1.2-2.833-1.2S364.283,87.776,363.547,88.576z"/>
		<path d="M401.323,96.4v9.072h-4.032 c-7.424,0-11.136-3.696-11.136-11.088V87.28h-3.36V78.4h3.36v-6.528h10.656V78.4h4.416v8.88h-4.416v7.296 c0,0.641,0.151,1.104,0.456,1.392c0.304,0.288,0.808,0.432,1.512,0.432H401.323z"/>
		<path d="M443.227,97.12 c-1.44,2.592-3.497,4.632-6.168,6.12c-2.673,1.488-5.784,2.232-9.337,2.232h-14.159V71.488h14.159c3.553,0,6.664,0.72,9.337,2.16 c2.671,1.44,4.728,3.44,6.168,6c1.439,2.561,2.159,5.472,2.159,8.736C445.386,91.616,444.667,94.528,443.227,97.12z M432.474,94 c1.408-1.312,2.112-3.184,2.112-5.616c0-2.432-0.704-4.304-2.112-5.616c-1.408-1.312-3.312-1.968-5.712-1.968h-2.544v15.168h2.544 C429.163,95.968,431.066,95.312,432.474,94z"/>
		<path d="M475.194,93.808h-17.04 c0.096,1.344,0.399,2.264,0.912,2.76c0.512,0.496,1.184,0.744,2.016,0.744c1.152,0,1.984-0.528,2.496-1.584h11.28 c-0.384,1.92-1.192,3.641-2.424,5.16c-1.232,1.52-2.784,2.72-4.656,3.6c-1.872,0.88-3.929,1.32-6.168,1.32 c-2.688,0-5.081-0.56-7.176-1.68c-2.097-1.12-3.729-2.728-4.896-4.824c-1.168-2.096-1.752-4.552-1.752-7.368 c0-2.815,0.584-5.271,1.752-7.368c1.168-2.096,2.8-3.704,4.896-4.824c2.095-1.12,4.487-1.68,7.176-1.68 c2.688,0,5.079,0.552,7.176,1.656c2.096,1.104,3.728,2.681,4.896,4.728c1.167,2.048,1.752,4.464,1.752,7.248 C475.434,92.368,475.353,93.072,475.194,93.808z M464.633,89.439c0-1.023-0.288-1.783-0.863-2.28 c-0.576-0.496-1.296-0.744-2.16-0.744c-1.952,0-3.072,1.008-3.36,3.024H464.633z"/>
		<path d="M492.522,95.344l4.32-16.944h11.328l-9.024,27.072 H485.85L476.826,78.4h11.328L492.522,95.344z"/>
		<path d="M536.969,93.808h-17.04 c0.096,1.344,0.399,2.264,0.912,2.76c0.512,0.496,1.184,0.744,2.016,0.744c1.152,0,1.984-0.528,2.496-1.584h11.28 c-0.384,1.92-1.192,3.641-2.424,5.16c-1.232,1.52-2.784,2.72-4.656,3.6c-1.872,0.88-3.929,1.32-6.168,1.32 c-2.688,0-5.081-0.56-7.176-1.68c-2.097-1.12-3.729-2.728-4.896-4.824c-1.168-2.096-1.752-4.552-1.752-7.368 c0-2.815,0.584-5.271,1.752-7.368c1.168-2.096,2.8-3.704,4.896-4.824c2.095-1.12,4.487-1.68,7.176-1.68 c2.688,0,5.079,0.552,7.176,1.656c2.096,1.104,3.728,2.681,4.896,4.728c1.167,2.048,1.752,4.464,1.752,7.248 C537.209,92.368,537.128,93.072,536.969,93.808z M526.409,89.439c0-1.023-0.288-1.783-0.863-2.28 c-0.576-0.496-1.296-0.744-2.16-0.744c-1.952,0-3.072,1.008-3.36,3.024H526.409z"/>
		<path d="M551.225,69.952v35.52H540.57v-35.52H551.225z"/>
		<path d="M576.233,79.744 c2.176,1.121,3.879,2.729,5.111,4.824c1.231,2.096,1.849,4.552,1.849,7.368c0,2.816-0.617,5.272-1.849,7.368 c-1.232,2.096-2.936,3.704-5.111,4.824c-2.177,1.121-4.625,1.68-7.345,1.68s-5.168-0.56-7.344-1.68 c-2.177-1.12-3.881-2.728-5.112-4.824c-1.231-2.096-1.848-4.552-1.848-7.368c0-2.815,0.616-5.271,1.848-7.368 c1.231-2.096,2.936-3.704,5.112-4.824c2.176-1.12,4.624-1.68,7.344-1.68S574.056,78.624,576.233,79.744z M566.392,88.456 c-0.672,0.785-1.008,1.944-1.008,3.48c0,1.536,0.328,2.696,0.984,3.48c0.655,0.785,1.495,1.176,2.52,1.176 c0.992,0,1.824-0.392,2.496-1.176c0.672-0.784,1.008-1.944,1.008-3.48c0-1.536-0.336-2.695-1.008-3.48 c-0.672-0.784-1.504-1.176-2.496-1.176S567.065,87.672,566.392,88.456z"/>
		<path d="M610.36,79.72c1.695,1.104,3.031,2.705,4.008,4.8 c0.976,2.096,1.464,4.568,1.464,7.416c0,2.849-0.488,5.321-1.464,7.416c-0.977,2.096-2.313,3.696-4.008,4.8 c-1.696,1.104-3.6,1.656-5.712,1.656c-1.761,0-3.272-0.36-4.536-1.08c-1.265-0.72-2.232-1.704-2.904-2.952v16.656h-10.655V78.4 h10.655v3.696c0.672-1.248,1.64-2.232,2.904-2.952c1.264-0.72,2.775-1.08,4.536-1.08C606.76,78.063,608.664,78.616,610.36,79.72z  M598.264,88.576c-0.736,0.8-1.104,1.92-1.104,3.36s0.368,2.561,1.104,3.36c0.735,0.8,1.68,1.2,2.832,1.2 c1.151,0,2.095-0.4,2.832-1.2c0.735-0.8,1.104-1.92,1.104-3.36s-0.368-2.56-1.104-3.36c-0.737-0.799-1.681-1.2-2.832-1.2 C599.944,87.375,599,87.776,598.264,88.576z"/>
		<path d="M645.16,93.808h-17.04 c0.096,1.344,0.399,2.264,0.912,2.76c0.512,0.496,1.184,0.744,2.016,0.744c1.152,0,1.984-0.528,2.496-1.584h11.28 c-0.384,1.92-1.192,3.641-2.424,5.16c-1.232,1.52-2.784,2.72-4.656,3.6c-1.872,0.88-3.929,1.32-6.168,1.32 c-2.688,0-5.081-0.56-7.176-1.68c-2.097-1.12-3.729-2.728-4.896-4.824c-1.168-2.096-1.752-4.552-1.752-7.368 c0-2.815,0.584-5.271,1.752-7.368c1.168-2.096,2.8-3.704,4.896-4.824c2.095-1.12,4.487-1.68,7.176-1.68 c2.688,0,5.079,0.552,7.176,1.656c2.096,1.104,3.728,2.681,4.896,4.728c1.167,2.048,1.752,4.464,1.752,7.248 C645.4,92.368,645.319,93.072,645.16,93.808z M634.599,89.439c0-1.023-0.288-1.783-0.863-2.28c-0.576-0.496-1.296-0.744-2.16-0.744 c-1.952,0-3.072,1.008-3.36,3.024H634.599z"/>
		<path d="M663.4,79.624 c1.567-0.943,3.199-1.416,4.896-1.416v11.376h-3.023c-2.016,0-3.497,0.353-4.44,1.056c-0.944,0.704-1.416,1.952-1.416,3.744v11.088 H648.76V78.4h10.655v4.992C660.503,81.824,661.832,80.568,663.4,79.624z"/>
	</g>
</svg>
