<?xml version="1.0" encoding="iso-8859-1"?>
<svg xmlns="http://www.w3.org/2000/svg" viewBox="-340.7 231.4 391.5 217.2" width="732.2" heiht="448.6">
	<g fill="#ffffff">
		<path d="M-324,240.1l10.5,35.1l10.4-35.1h17l-17.1,51h-20.7l-17.1-51H-324z"/>
		<path d="M-252.2,252.5c3.3,1.7,5.8,4.1,7.7,7.2c1.8,3.1,2.8,6.8,2.8,11.1s-0.9,7.9-2.8,11.1c-1.8,3.1-4.4,5.6-7.7,7.2 c-3.3,1.7-6.9,2.5-11,2.5c-4.1,0-7.8-0.8-11-2.5c-3.3-1.7-5.8-4.1-7.7-7.2c-1.8-3.1-2.8-6.8-2.8-11.1s0.9-7.9,2.8-11.1 c1.8-3.1,4.4-5.6,7.7-7.2c3.3-1.7,6.9-2.5,11-2.5C-259.1,250-255.4,250.8-252.2,252.5z M-266.9,265.5c-1,1.2-1.5,2.9-1.5,5.2 c0,2.3,0.5,4,1.5,5.2c1,1.2,2.2,1.8,3.8,1.8c1.5,0,2.7-0.6,3.7-1.8c1-1.2,1.5-2.9,1.5-5.2c0-2.3-0.5-4-1.5-5.2 c-1-1.2-2.3-1.8-3.7-1.8C-264.7,263.8-265.9,264.4-266.9,265.5z"/>
		<path d="M-242.7,296.9h3.1c1.1,0,1.8-0.2,2.3-0.6c0.5-0.4,0.7-1.1,0.7-2.1v-43.7h16v43.4c0,11.1-5.6,16.6-16.7,16.6 h-5.3V296.9z M-235.5,245c-1.7-1.5-2.5-3.4-2.5-5.6c0-2.3,0.8-4.2,2.5-5.7c1.7-1.5,3.9-2.3,6.7-2.3c2.7,0,4.9,0.8,6.6,2.3 c1.7,1.5,2.5,3.4,2.5,5.7c0,2.3-0.8,4.1-2.5,5.6c-1.7,1.5-3.9,2.2-6.6,2.2C-231.6,247.2-233.8,246.5-235.5,245z"/>
		<path d="M-188.4,277.5v13.6h-6c-11.1,0-16.7-5.5-16.7-16.6v-10.7h-5v-13.3h5v-9.8h16v9.8h6.6v13.3h-6.6v10.9 c0,1,0.2,1.7,0.7,2.1c0.5,0.4,1.2,0.6,2.3,0.6H-188.4z"/>
		<path d="M-143.3,273.6h-25.6c0.1,2,0.6,3.4,1.4,4.1c0.8,0.7,1.8,1.1,3,1.1c1.7,0,3-0.8,3.7-2.4h16.9 c-0.6,2.9-1.8,5.5-3.6,7.7c-1.8,2.3-4.2,4.1-7,5.4c-2.8,1.3-5.9,2-9.3,2c-4,0-7.6-0.8-10.8-2.5c-3.1-1.7-5.6-4.1-7.3-7.2 c-1.8-3.1-2.6-6.8-2.6-11.1s0.9-7.9,2.6-11.1c1.8-3.1,4.2-5.6,7.3-7.2c3.1-1.7,6.7-2.5,10.8-2.5c4,0,7.6,0.8,10.8,2.5 c3.1,1.7,5.6,4,7.3,7.1c1.8,3.1,2.6,6.7,2.6,10.9C-142.9,271.4-143.1,272.5-143.3,273.6z M-151.7,242.3l-11.9,6.1l-12-6.1V232 l12,6.3l11.9-6.3V242.3z M-159.1,267c0-1.5-0.4-2.7-1.3-3.4c-0.9-0.7-1.9-1.1-3.2-1.1c-2.9,0-4.6,1.5-5,4.5H-159.1z"/>
		<path d="M-106,254.4c3.6,3,5.9,7.1,6.9,12.4H-116c-0.6-2.1-1.8-3.2-3.7-3.2c-1.3,0-2.3,0.6-3.1,1.8 c-0.7,1.2-1.1,3-1.1,5.3c0,2.4,0.4,4.1,1.1,5.3c0.7,1.2,1.8,1.8,3.1,1.8c1.8,0,3-1.1,3.7-3.2h16.9c-1,5.3-3.3,9.4-6.9,12.4 c-3.6,3-8.1,4.5-13.4,4.5c-4,0-7.6-0.8-10.8-2.5c-3.1-1.7-5.6-4.1-7.3-7.2c-1.8-3.1-2.6-6.8-2.6-11.1s0.9-7.9,2.6-11.1 c1.8-3.1,4.2-5.6,7.3-7.2c3.1-1.7,6.7-2.5,10.8-2.5C-114.1,250-109.6,251.4-106,254.4z"/>
		<path d="M-54.7,254.9c2.6,3.1,3.9,7.3,3.9,12.7v23.5h-15.9v-21.5c0-1.9-0.5-3.4-1.5-4.6c-1-1.1-2.4-1.7-4.1-1.7 c-1.8,0-3.2,0.6-4.2,1.7c-1,1.1-1.5,2.7-1.5,4.6v21.5h-16v-53.3h16v18.9c1.2-1.9,2.9-3.5,5-4.7c2.1-1.2,4.6-1.8,7.5-1.8 C-61,250.2-57.3,251.7-54.7,254.9z"/>
		<path d="M-309.8,326.8L-291,353h-19.2l-14.8-22.1V353h-16v-51h16v21.5l15-21.5h19.1L-309.8,326.8z"/>
		<path d="M-243.7,312.4V353h-16v-6.2c-1.2,1.9-2.9,3.5-5,4.7c-2.1,1.2-4.6,1.8-7.5,1.8c-4.7,0-8.3-1.6-10.9-4.7 c-2.6-3.1-3.9-7.3-3.9-12.7v-23.5h15.9v21.5c0,1.9,0.5,3.4,1.5,4.6c1,1.1,2.4,1.7,4.1,1.7c1.8,0,3.2-0.6,4.2-1.7 c1-1.1,1.5-2.7,1.5-4.6v-21.5H-243.7z"/>
		<path d="M-215.1,313.5c1.9,1.1,3.3,2.6,4.4,4.4v-18.2h16V353h-16v-5.5c-1,1.9-2.5,3.3-4.4,4.4 c-1.9,1.1-4.2,1.6-6.8,1.6c-3.2,0-6-0.8-8.6-2.5c-2.5-1.7-4.5-4.1-6-7.2c-1.5-3.1-2.2-6.9-2.2-11.1c0-4.3,0.7-8,2.2-11.1 c1.5-3.1,3.5-5.5,6-7.2c2.5-1.7,5.4-2.5,8.6-2.5C-219.2,311.9-217,312.4-215.1,313.5z M-220.8,327.6c-1.1,1.2-1.7,2.9-1.7,5 s0.6,3.8,1.7,5c1.1,1.2,2.5,1.8,4.2,1.8s3.1-0.6,4.2-1.8c1.1-1.2,1.7-2.9,1.7-5s-0.6-3.8-1.7-5c-1.1-1.2-2.5-1.8-4.2-1.8 S-219.7,326.5-220.8,327.6z"/>
		<path d="M-171.5,299.7V353h-16v-53.3H-171.5z"/>
		<path d="M-142.9,313.5c1.9,1.1,3.4,2.6,4.4,4.4v-5.5h15.9V353h-15.9v-5.5c-1,1.9-2.5,3.3-4.4,4.4 c-1.9,1.1-4.2,1.6-6.8,1.6c-3.2,0-6-0.8-8.6-2.5c-2.5-1.7-4.5-4.1-6-7.2c-1.5-3.1-2.2-6.9-2.2-11.1c0-4.3,0.7-8,2.2-11.1 c1.5-3.1,3.5-5.5,6-7.2c2.5-1.7,5.4-2.5,8.6-2.5C-147.1,311.9-144.8,312.4-142.9,313.5z M-135.2,302.9l-18.6,6.8V299l18.6-7.9 V302.9z M-148.6,327.6c-1.1,1.2-1.7,2.9-1.7,5s0.6,3.8,1.7,5c1.1,1.2,2.5,1.8,4.2,1.8s3.1-0.6,4.2-1.8c1.1-1.2,1.7-2.9,1.7-5 s-0.6-3.8-1.7-5c-1.1-1.2-2.5-1.8-4.2-1.8S-147.5,326.5-148.6,327.6z"/>
		<path d="M-83.4,316.3c3.6,3,5.9,7.1,6.9,12.4h-16.9c-0.6-2.1-1.8-3.2-3.7-3.2c-1.3,0-2.3,0.6-3.1,1.8 c-0.7,1.2-1.1,3-1.1,5.3c0,2.4,0.4,4.1,1.1,5.3c0.7,1.2,1.8,1.8,3.1,1.8c1.8,0,3-1.1,3.7-3.2h16.9c-1,5.3-3.3,9.4-6.9,12.4 c-3.6,3-8.1,4.5-13.4,4.5c-4,0-7.6-0.8-10.8-2.5c-3.1-1.7-5.6-4.1-7.3-7.2c-1.8-3.1-2.6-6.8-2.6-11.1s0.9-7.9,2.6-11.1 c1.8-3.1,4.2-5.6,7.3-7.2c3.1-1.7,6.7-2.5,10.8-2.5C-91.5,311.9-87.1,313.4-83.4,316.3z M-85.1,304.2l-11.9,6.1l-12-6.1v-10.4 l12,6.3l11.9-6.3V304.2z"/>
		<path d="M-32.6,335.5h-25.6c0.1,2,0.6,3.4,1.4,4.1c0.8,0.7,1.8,1.1,3,1.1c1.7,0,3-0.8,3.7-2.4h16.9 c-0.6,2.9-1.8,5.5-3.6,7.7c-1.8,2.3-4.2,4.1-7,5.4c-2.8,1.3-5.9,2-9.3,2c-4,0-7.6-0.8-10.8-2.5c-3.1-1.7-5.6-4.1-7.3-7.2 c-1.8-3.1-2.6-6.8-2.6-11.1s0.9-7.9,2.6-11.1c1.8-3.1,4.2-5.6,7.3-7.2c3.1-1.7,6.7-2.5,10.8-2.5s7.6,0.8,10.8,2.5 c3.1,1.7,5.6,4,7.3,7.1c1.8,3.1,2.6,6.7,2.6,10.9C-32.2,333.3-32.3,334.4-32.6,335.5z M-48.4,328.9c0-1.5-0.4-2.7-1.3-3.4 s-1.9-1.1-3.2-1.1c-2.9,0-4.6,1.5-5,4.5H-48.4z"/>
		<path d="M-1.2,353l-10-16.2V353h-16v-53.3h16v27.9L-1,312.4h18.6L2.3,332.8L17.9,353H-1.2z"/>
	</g>
	<g stroke="#ffffff" stroke-width="1" fill="none" stroke-miterlimit="10">
		<path d="M-230.2,359.3v21.9c0,4.1-1.1,7.1-3.2,9.2c-2.1,2.1-5.1,3.1-9,3.1c-4.1,0-7.4-1.1-9.8-3.4 c-2.4-2.3-3.6-5.6-3.6-9.9h10.5c0,1.4,0.2,2.3,0.7,2.9c0.4,0.6,1.1,0.8,1.8,0.8c0.6,0,1.1-0.2,1.5-0.6c0.4-0.4,0.5-1.1,0.5-2.2 v-21.9H-230.2z"/>
		<path d="M-211.3,367c1.3,0.7,2.3,1.7,2.9,3v-3.7h10.6v27.1h-10.6v-3.7c-0.7,1.2-1.6,2.2-2.9,3 c-1.3,0.7-2.8,1.1-4.6,1.1c-2.1,0-4-0.6-5.7-1.7c-1.7-1.1-3-2.7-4-4.8c-1-2.1-1.5-4.6-1.5-7.4c0-2.8,0.5-5.3,1.5-7.4 c1-2.1,2.3-3.7,4-4.8c1.7-1.1,3.6-1.7,5.7-1.7C-214.1,365.9-212.6,366.2-211.3,367z M-215.2,376.4c-0.7,0.8-1.1,1.9-1.1,3.4 c0,1.4,0.4,2.6,1.1,3.4c0.7,0.8,1.7,1.2,2.8,1.2c1.2,0,2.1-0.4,2.8-1.2c0.7-0.8,1.1-1.9,1.1-3.4c0-1.4-0.4-2.6-1.1-3.4 c-0.7-0.8-1.7-1.2-2.8-1.2C-213.5,375.2-214.4,375.6-215.2,376.4z"/>
		<path d="M-179.3,383.2l4.3-16.9h11.3l-9,27.1h-13.3l-9-27.1h11.3L-179.3,383.2z"/>
		<path d="M-146.5,367c1.3,0.7,2.3,1.7,2.9,3v-3.7h10.6v27.1h-10.6v-3.7c-0.7,1.2-1.6,2.2-2.9,3 c-1.3,0.7-2.8,1.1-4.6,1.1c-2.1,0-4-0.6-5.7-1.7c-1.7-1.1-3-2.7-4-4.8c-1-2.1-1.5-4.6-1.5-7.4c0-2.8,0.5-5.3,1.5-7.4 c1-2.1,2.3-3.7,4-4.8c1.7-1.1,3.6-1.7,5.7-1.7C-149.3,365.9-147.8,366.2-146.5,367z M-150.3,376.4c-0.7,0.8-1.1,1.9-1.1,3.4 c0,1.4,0.4,2.6,1.1,3.4c0.7,0.8,1.7,1.2,2.8,1.2c1.2,0,2.1-0.4,2.8-1.2c0.7-0.8,1.1-1.9,1.1-3.4c0-1.4-0.4-2.6-1.1-3.4 c-0.7-0.8-1.7-1.2-2.8-1.2C-148.6,375.2-149.6,375.6-150.3,376.4z"/>
		<path d="M-103.4,388.5c-1,1.6-2.5,2.8-4.4,3.7s-4.2,1.4-6.9,1.4c-4.1,0-7.4-1-10.1-2.9c-2.6-1.9-4.1-4.7-4.3-8.4h11.3 c0.2,2,1,2.9,2.6,2.9c0.5,0,1-0.1,1.3-0.4s0.5-0.7,0.5-1.2c0-0.8-0.4-1.4-1.2-1.9s-2.1-1-4-1.6c-2.1-0.7-3.9-1.4-5.4-2.2 c-1.4-0.7-2.7-1.8-3.7-3.3c-1.1-1.4-1.6-3.3-1.6-5.6c0-2.2,0.6-4.1,1.7-5.6c1.1-1.6,2.7-2.7,4.7-3.5c2-0.8,4.2-1.2,6.6-1.2 c4.1,0,7.3,0.9,9.7,2.8c2.4,1.9,3.7,4.6,3.9,8.2h-11.5c-0.2-1.8-0.9-2.7-2.2-2.7c-0.4,0-0.8,0.1-1.1,0.4s-0.4,0.7-0.4,1.2 c0,0.7,0.4,1.3,1.2,1.8c0.8,0.5,2.1,1,3.8,1.6c2.2,0.8,4,1.5,5.4,2.3c1.4,0.8,2.7,1.9,3.7,3.3c1.1,1.5,1.6,3.3,1.6,5.6 C-101.9,385.2-102.4,387-103.4,388.5z"/>
		<path d="M-76.9,368.9c2.4,2,3.9,4.7,4.6,8.3h-11.3c-0.4-1.4-1.2-2.1-2.4-2.1c-0.9,0-1.5,0.4-2,1.2 c-0.5,0.8-0.7,2-0.7,3.6c0,1.6,0.2,2.8,0.7,3.6c0.5,0.8,1.2,1.2,2,1.2c1.2,0,2-0.7,2.4-2.1h11.3c-0.6,3.5-2.2,6.3-4.6,8.3 c-2.4,2-5.4,3-8.9,3c-2.7,0-5.1-0.6-7.2-1.7c-2.1-1.1-3.7-2.7-4.9-4.8c-1.2-2.1-1.8-4.6-1.8-7.4c0-2.8,0.6-5.3,1.8-7.4 c1.2-2.1,2.8-3.7,4.9-4.8c2.1-1.1,4.5-1.7,7.2-1.7C-82.2,365.9-79.3,366.9-76.9,368.9z"/>
		<path d="M-54.3,367.4c1.6-0.9,3.2-1.4,4.9-1.4v11.4h-3c-2,0-3.5,0.4-4.4,1.1c-0.9,0.7-1.4,2-1.4,3.7v11.1h-10.7v-27.1 h10.7v5C-57.2,369.6-55.8,368.4-54.3,367.4z"/>
		<path d="M-45.6,355c1.1-1,2.6-1.5,4.5-1.5c1.8,0,3.3,0.5,4.4,1.5c1.1,1,1.7,2.3,1.7,3.8c0,1.5-0.6,2.8-1.7,3.7 c-1.1,1-2.6,1.5-4.4,1.5c-1.9,0-3.3-0.5-4.5-1.5c-1.1-1-1.7-2.2-1.7-3.7C-47.3,357.3-46.7,356-45.6,355z M-35.8,366.2v27.1h-10.7 v-27.1H-35.8z"/>
		<path d="M-7.2,367.5c1.7,1.1,3,2.7,4,4.8c1,2.1,1.5,4.6,1.5,7.4c0,2.8-0.5,5.3-1.5,7.4c-1,2.1-2.3,3.7-4,4.8 c-1.7,1.1-3.6,1.7-5.7,1.7c-1.8,0-3.3-0.4-4.5-1.1c-1.3-0.7-2.2-1.7-2.9-3v16.7H-31v-40h10.7v3.7c0.7-1.2,1.6-2.2,2.9-3 c1.3-0.7,2.8-1.1,4.5-1.1C-10.8,365.9-8.9,366.4-7.2,367.5z M-19.3,376.4c-0.7,0.8-1.1,1.9-1.1,3.4c0,1.4,0.4,2.6,1.1,3.4 c0.7,0.8,1.7,1.2,2.8,1.2c1.2,0,2.1-0.4,2.8-1.2c0.7-0.8,1.1-1.9,1.1-3.4c0-1.4-0.4-2.6-1.1-3.4c-0.7-0.8-1.7-1.2-2.8-1.2 C-17.7,375.2-18.6,375.6-19.3,376.4z"/>
		<path d="M18.4,384.2v9.1h-4c-7.4,0-11.1-3.7-11.1-11.1v-7.1h-3.4v-8.9h3.4v-6.5h10.7v6.5h4.4v8.9h-4.4v7.3 c0,0.6,0.2,1.1,0.5,1.4c0.3,0.3,0.8,0.4,1.5,0.4H18.4z"/>
		<path d="M-174.3,427.3c-1.4,2.6-3.5,4.6-6.2,6.1c-2.7,1.5-5.8,2.2-9.3,2.2H-204v-34h14.2c3.6,0,6.7,0.7,9.3,2.2 c2.7,1.4,4.7,3.4,6.2,6c1.4,2.6,2.2,5.5,2.2,8.7C-172.2,421.8-172.9,424.7-174.3,427.3z M-185.1,424.2c1.4-1.3,2.1-3.2,2.1-5.6 c0-2.4-0.7-4.3-2.1-5.6c-1.4-1.3-3.3-2-5.7-2h-2.5v15.2h2.5C-188.4,426.2-186.5,425.5-185.1,424.2z"/>
		<path d="M-142.4,424h-17c0.1,1.3,0.4,2.3,0.9,2.8c0.5,0.5,1.2,0.7,2,0.7c1.2,0,2-0.5,2.5-1.6h11.3 c-0.4,1.9-1.2,3.6-2.4,5.2c-1.2,1.5-2.8,2.7-4.7,3.6c-1.9,0.9-3.9,1.3-6.2,1.3c-2.7,0-5.1-0.6-7.2-1.7c-2.1-1.1-3.7-2.7-4.9-4.8 c-1.2-2.1-1.8-4.6-1.8-7.4c0-2.8,0.6-5.3,1.8-7.4c1.2-2.1,2.8-3.7,4.9-4.8c2.1-1.1,4.5-1.7,7.2-1.7s5.1,0.6,7.2,1.7 c2.1,1.1,3.7,2.7,4.9,4.7c1.2,2,1.8,4.5,1.8,7.2C-142.1,422.6-142.2,423.3-142.4,424z M-152.9,419.6c0-1-0.3-1.8-0.9-2.3 c-0.6-0.5-1.3-0.7-2.2-0.7c-2,0-3.1,1-3.4,3H-152.9z"/>
		<path d="M-125,425.5l4.3-16.9h11.3l-9,27.1h-13.3l-9-27.1h11.3L-125,425.5z"/>
		<path d="M-80.6,424h-17c0.1,1.3,0.4,2.3,0.9,2.8c0.5,0.5,1.2,0.7,2,0.7c1.2,0,2-0.5,2.5-1.6h11.3 c-0.4,1.9-1.2,3.6-2.4,5.2c-1.2,1.5-2.8,2.7-4.7,3.6c-1.9,0.9-3.9,1.3-6.2,1.3c-2.7,0-5.1-0.6-7.2-1.7c-2.1-1.1-3.7-2.7-4.9-4.8 c-1.2-2.1-1.8-4.6-1.8-7.4c0-2.8,0.6-5.3,1.8-7.4c1.2-2.1,2.8-3.7,4.9-4.8c2.1-1.1,4.5-1.7,7.2-1.7s5.1,0.6,7.2,1.7 c2.1,1.1,3.7,2.7,4.9,4.7c1.2,2,1.8,4.5,1.8,7.2C-80.4,422.6-80.4,423.3-80.6,424z M-91.2,419.6c0-1-0.3-1.8-0.9-2.3 c-0.6-0.5-1.3-0.7-2.2-0.7c-2,0-3.1,1-3.4,3H-91.2z"/>
		<path d="M-66.3,400.1v35.5H-77v-35.5H-66.3z"/>
		<path d="M-41.3,409.9c2.2,1.1,3.9,2.7,5.1,4.8c1.2,2.1,1.8,4.6,1.8,7.4c0,2.8-0.6,5.3-1.8,7.4 c-1.2,2.1-2.9,3.7-5.1,4.8c-2.2,1.1-4.6,1.7-7.3,1.7c-2.7,0-5.2-0.6-7.3-1.7c-2.2-1.1-3.9-2.7-5.1-4.8c-1.2-2.1-1.8-4.6-1.8-7.4 c0-2.8,0.6-5.3,1.8-7.4c1.2-2.1,2.9-3.7,5.1-4.8c2.2-1.1,4.6-1.7,7.3-1.7C-46,408.2-43.5,408.8-41.3,409.9z M-51.2,418.6 c-0.7,0.8-1,1.9-1,3.5s0.3,2.7,1,3.5c0.7,0.8,1.5,1.2,2.5,1.2c1,0,1.8-0.4,2.5-1.2c0.7-0.8,1-1.9,1-3.5s-0.3-2.7-1-3.5 c-0.7-0.8-1.5-1.2-2.5-1.2C-49.7,417.5-50.5,417.9-51.2,418.6z"/>
		<path d="M-7.2,409.9c1.7,1.1,3,2.7,4,4.8c1,2.1,1.5,4.6,1.5,7.4c0,2.8-0.5,5.3-1.5,7.4c-1,2.1-2.3,3.7-4,4.8 c-1.7,1.1-3.6,1.7-5.7,1.7c-1.8,0-3.3-0.4-4.5-1.1c-1.3-0.7-2.2-1.7-2.9-3v16.7H-31v-40h10.7v3.7c0.7-1.2,1.6-2.2,2.9-3 c1.3-0.7,2.8-1.1,4.5-1.1C-10.8,408.2-8.9,408.8-7.2,409.9z M-19.3,418.8c-0.7,0.8-1.1,1.9-1.1,3.4c0,1.4,0.4,2.6,1.1,3.4 c0.7,0.8,1.7,1.2,2.8,1.2c1.2,0,2.1-0.4,2.8-1.2c0.7-0.8,1.1-1.9,1.1-3.4c0-1.4-0.4-2.6-1.1-3.4c-0.7-0.8-1.7-1.2-2.8-1.2 C-17.6,417.6-18.6,418-19.3,418.8z"/>
		<path d="M27.6,424h-17c0.1,1.3,0.4,2.3,0.9,2.8c0.5,0.5,1.2,0.7,2,0.7c1.2,0,2-0.5,2.5-1.6h11.3 c-0.4,1.9-1.2,3.6-2.4,5.2c-1.2,1.5-2.8,2.7-4.7,3.6c-1.9,0.9-3.9,1.3-6.2,1.3c-2.7,0-5.1-0.6-7.2-1.7c-2.1-1.1-3.7-2.7-4.9-4.8 c-1.2-2.1-1.8-4.6-1.8-7.4c0-2.8,0.6-5.3,1.8-7.4c1.2-2.1,2.8-3.7,4.9-4.8c2.1-1.1,4.5-1.7,7.2-1.7s5.1,0.6,7.2,1.7 c2.1,1.1,3.7,2.7,4.9,4.7c1.2,2,1.8,4.5,1.8,7.2C27.8,422.6,27.8,423.3,27.6,424z M17,419.6c0-1-0.3-1.8-0.9-2.3 c-0.6-0.5-1.3-0.7-2.2-0.7c-2,0-3.1,1-3.4,3H17z"/>
		<path d="M45.8,409.8c1.6-0.9,3.2-1.4,4.9-1.4v11.4h-3c-2,0-3.5,0.4-4.4,1.1c-0.9,0.7-1.4,2-1.4,3.7v11.1H31.2v-27.1 h10.7v5C42.9,412,44.3,410.8,45.8,409.8z"/>
	</g>
</svg>
